STARTFONT 2.1
FONT -FontForge-Untitled1-Regular-R-Normal--5-50-75-75-P-45-ISO8859-1
SIZE 5 75 75
FONTBOUNDINGBOX 6 6 -1 -4
COMMENT "Generated by fontforge, http://fontforge.sourceforge.net"
COMMENT "Copyright (c) 2025, Taylor Faragher"
STARTPROPERTIES 28
FOUNDRY "FontForge"
FAMILY_NAME "Untitled1"
WEIGHT_NAME "Regular"
SLANT "R"
SETWIDTH_NAME "Normal"
ADD_STYLE_NAME ""
PIXEL_SIZE 5
POINT_SIZE 50
RESOLUTION_X 75
RESOLUTION_Y 75
SPACING "P"
AVERAGE_WIDTH 45
CHARSET_REGISTRY "ISO8859"
CHARSET_ENCODING "1"
FONTNAME_REGISTRY ""
CHARSET_COLLECTIONS "ISOLatin1Encoding"
FONT_NAME "Untitled1"
FACE_NAME "Untitled1"
COPYRIGHT "Copyright (c) 2025, Taylor Faragher"
FONT_VERSION "001.000"
FONT_ASCENT 2
FONT_DESCENT 3
UNDERLINE_POSITION 0
UNDERLINE_THICKNESS 0
CAP_HEIGHT 1
RAW_ASCENT 833
RAW_DESCENT 166
AVG_UPPERCASE_WIDTH 49
ENDPROPERTIES
CHARS 44
STARTCHAR exclam
ENCODING 33
SWIDTH 333 0
DWIDTH 2 0
BBX 1 5 0 -3
BITMAP
80
80
80
00
80
ENDCHAR
STARTCHAR percent
ENCODING 37
SWIDTH 1000 0
DWIDTH 5 0
BBX 5 5 0 -3
BITMAP
88
10
20
40
88
ENDCHAR
STARTCHAR hyphen
ENCODING 45
SWIDTH 500 0
DWIDTH 3 0
BBX 2 1 0 -1
BITMAP
C0
ENDCHAR
STARTCHAR period
ENCODING 46
SWIDTH 333 0
DWIDTH 2 0
BBX 1 1 0 -3
BITMAP
80
ENDCHAR
STARTCHAR zero
ENCODING 48
SWIDTH 1000 0
DWIDTH 5 0
BBX 4 5 0 -3
BITMAP
60
90
90
90
60
ENDCHAR
STARTCHAR one
ENCODING 49
SWIDTH 666 0
DWIDTH 4 0
BBX 3 5 0 -3
BITMAP
40
C0
40
40
E0
ENDCHAR
STARTCHAR two
ENCODING 50
SWIDTH 1000 0
DWIDTH 5 0
BBX 4 5 0 -3
BITMAP
60
90
20
40
F0
ENDCHAR
STARTCHAR three
ENCODING 51
SWIDTH 666 0
DWIDTH 4 0
BBX 3 5 0 -3
BITMAP
E0
20
E0
20
E0
ENDCHAR
STARTCHAR four
ENCODING 52
SWIDTH 1000 0
DWIDTH 5 0
BBX 4 5 0 -3
BITMAP
90
90
F0
10
10
ENDCHAR
STARTCHAR five
ENCODING 53
SWIDTH 666 0
DWIDTH 4 0
BBX 3 5 0 -3
BITMAP
E0
80
E0
20
E0
ENDCHAR
STARTCHAR six
ENCODING 54
SWIDTH 666 0
DWIDTH 4 0
BBX 3 5 0 -3
BITMAP
E0
80
E0
A0
E0
ENDCHAR
STARTCHAR seven
ENCODING 55
SWIDTH 1000 0
DWIDTH 5 0
BBX 4 5 0 -3
BITMAP
F0
10
20
40
80
ENDCHAR
STARTCHAR eight
ENCODING 56
SWIDTH 666 0
DWIDTH 4 0
BBX 3 5 0 -3
BITMAP
E0
A0
E0
A0
E0
ENDCHAR
STARTCHAR nine
ENCODING 57
SWIDTH 666 0
DWIDTH 4 0
BBX 3 5 0 -3
BITMAP
E0
A0
E0
20
20
ENDCHAR
STARTCHAR colon
ENCODING 58
SWIDTH 333 0
DWIDTH 2 0
BBX 1 3 0 -2
BITMAP
80
00
80
ENDCHAR
STARTCHAR semicolon
ENCODING 59
SWIDTH 500 0
DWIDTH 3 0
BBX 2 5 -1 -4
BITMAP
40
00
40
40
80
ENDCHAR
STARTCHAR A
ENCODING 65
SWIDTH 1000 0
DWIDTH 5 0
BBX 4 5 0 -3
BITMAP
F0
90
F0
90
90
ENDCHAR
STARTCHAR B
ENCODING 66
SWIDTH 1000 0
DWIDTH 5 0
BBX 4 5 0 -3
BITMAP
F0
90
E0
90
F0
ENDCHAR
STARTCHAR C
ENCODING 67
SWIDTH 666 0
DWIDTH 4 0
BBX 3 5 0 -3
BITMAP
E0
80
80
80
E0
ENDCHAR
STARTCHAR D
ENCODING 68
SWIDTH 1000 0
DWIDTH 5 0
BBX 4 5 0 -3
BITMAP
E0
90
90
90
E0
ENDCHAR
STARTCHAR E
ENCODING 69
SWIDTH 666 0
DWIDTH 4 0
BBX 3 5 0 -3
BITMAP
E0
80
E0
80
E0
ENDCHAR
STARTCHAR F
ENCODING 70
SWIDTH 666 0
DWIDTH 4 0
BBX 3 5 0 -3
BITMAP
E0
80
E0
80
80
ENDCHAR
STARTCHAR G
ENCODING 71
SWIDTH 1000 0
DWIDTH 5 0
BBX 4 5 0 -3
BITMAP
70
80
B0
90
F0
ENDCHAR
STARTCHAR H
ENCODING 72
SWIDTH 1000 0
DWIDTH 5 0
BBX 4 5 0 -3
BITMAP
90
90
F0
90
90
ENDCHAR
STARTCHAR I
ENCODING 73
SWIDTH 666 0
DWIDTH 4 0
BBX 3 5 0 -3
BITMAP
E0
40
40
40
E0
ENDCHAR
STARTCHAR J
ENCODING 74
SWIDTH 666 0
DWIDTH 4 0
BBX 3 5 0 -3
BITMAP
20
20
20
A0
E0
ENDCHAR
STARTCHAR K
ENCODING 75
SWIDTH 666 0
DWIDTH 4 0
BBX 3 5 0 -3
BITMAP
A0
A0
C0
A0
A0
ENDCHAR
STARTCHAR L
ENCODING 76
SWIDTH 666 0
DWIDTH 4 0
BBX 3 5 0 -3
BITMAP
80
80
80
80
E0
ENDCHAR
STARTCHAR M
ENCODING 77
SWIDTH 1166 0
DWIDTH 6 0
BBX 5 5 0 -3
BITMAP
88
D8
A8
88
88
ENDCHAR
STARTCHAR N
ENCODING 78
SWIDTH 1166 0
DWIDTH 6 0
BBX 5 5 0 -3
BITMAP
88
C8
A8
98
88
ENDCHAR
STARTCHAR O
ENCODING 79
SWIDTH 1000 0
DWIDTH 5 0
BBX 4 5 0 -3
BITMAP
F0
90
90
90
F0
ENDCHAR
STARTCHAR P
ENCODING 80
SWIDTH 666 0
DWIDTH 4 0
BBX 3 5 0 -3
BITMAP
E0
A0
E0
80
80
ENDCHAR
STARTCHAR Q
ENCODING 81
SWIDTH 1000 0
DWIDTH 5 0
BBX 4 5 0 -3
BITMAP
F0
90
90
A0
D0
ENDCHAR
STARTCHAR R
ENCODING 82
SWIDTH 1000 0
DWIDTH 5 0
BBX 4 5 0 -3
BITMAP
F0
90
F0
A0
90
ENDCHAR
STARTCHAR S
ENCODING 83
SWIDTH 666 0
DWIDTH 4 0
BBX 3 5 0 -3
BITMAP
E0
80
E0
20
E0
ENDCHAR
STARTCHAR T
ENCODING 84
SWIDTH 1166 0
DWIDTH 6 0
BBX 5 5 0 -3
BITMAP
F8
20
20
20
20
ENDCHAR
STARTCHAR U
ENCODING 85
SWIDTH 1000 0
DWIDTH 5 0
BBX 4 5 0 -3
BITMAP
90
90
90
90
F0
ENDCHAR
STARTCHAR V
ENCODING 86
SWIDTH 1166 0
DWIDTH 6 0
BBX 5 5 0 -3
BITMAP
88
88
88
50
20
ENDCHAR
STARTCHAR W
ENCODING 87
SWIDTH 1166 0
DWIDTH 6 0
BBX 5 5 0 -3
BITMAP
A8
A8
A8
A8
F8
ENDCHAR
STARTCHAR X
ENCODING 88
SWIDTH 1166 0
DWIDTH 6 0
BBX 5 5 0 -3
BITMAP
88
50
20
50
88
ENDCHAR
STARTCHAR Y
ENCODING 89
SWIDTH 1166 0
DWIDTH 6 0
BBX 5 5 0 -3
BITMAP
88
50
20
20
20
ENDCHAR
STARTCHAR Z
ENCODING 90
SWIDTH 1166 0
DWIDTH 6 0
BBX 5 5 0 -3
BITMAP
F8
10
20
40
F8
ENDCHAR
STARTCHAR bar
ENCODING 124
SWIDTH 500 0
DWIDTH 3 0
BBX 1 5 1 -3
BITMAP
80
80
80
80
80
ENDCHAR
STARTCHAR periodcentered
ENCODING 183
SWIDTH 1000 0
DWIDTH 5 0
BBX 1 1 4 -2
BITMAP
00
ENDCHAR
ENDFONT
